<svg width="60" height="62" viewBox="0 0 60 62" fill="none" xmlns="http://www.w3.org/2000/svg">
<path d="M59.7815 5.03386L29.0475 46.6449C28.4278 47.4843 27.1324 47.4318 26.5795 46.5459L13.9803 26.3478C13.5268 25.6207 14.4067 24.8066 15.1232 25.2903L27.8269 33.8677L58.5597 4.00993C59.2614 3.32938 60.3604 4.25024 59.7815 5.03386Z" fill="#A426D1"/>
<path d="M57.7004 32.7135C57.7004 48.647 44.7837 61.5637 28.8502 61.5637C12.9167 61.5637 0 48.647 0 32.7135C0 16.78 12.9167 3.86328 28.8502 3.86328C44.7837 3.86328 57.7004 16.78 57.7004 32.7135ZM6.69348 32.7135C6.69348 44.9503 16.6134 54.8702 28.8502 54.8702C41.087 54.8702 51.0069 44.9503 51.0069 32.7135C51.0069 20.4767 41.087 10.5568 28.8502 10.5568C16.6134 10.5568 6.69348 20.4767 6.69348 32.7135Z" fill="#A426D1"/>
</svg>
