<svg width="67" height="21" viewBox="0 0 67 21" fill="none" xmlns="http://www.w3.org/2000/svg">
<path fill-rule="evenodd" clip-rule="evenodd" d="M55.2599 4.22907H59.4787V10.97L63.1283 4.22907H67L59.1939 17.8572C59.1939 17.8572 58.4693 19.0003 57.5705 19.605C56.8321 20.1022 55.9241 20.0797 55.6466 20.1C54.1047 20.0865 52.2448 20.0823 52.2448 20.0823L53.142 16.8337L54.5937 16.8311C54.5937 16.8311 55.2583 16.763 55.5149 16.4335C55.7594 16.1194 55.8844 15.8053 55.8844 15.3447C55.8844 14.6542 55.2599 4.22875 55.2599 4.22875V4.22907ZM11.4224 5.57533C10.8353 6.94345 9.01463 6.78786 9.01463 6.78786L6.89482 6.7779L7.66865 3.88062C7.66865 3.88062 9.56504 3.88769 10.4952 3.88769C11.4908 3.88769 11.8018 4.69197 11.4227 5.57501L11.4224 5.57533ZM16.2403 3.60095C16.6011 0.726169 14.0856 0.000321456 11.3659 0.000321456H4.21884L0 15.464H4.54135L5.95925 10.2136L8.50673 10.2345C8.50673 10.2345 9.558 10.1731 9.57878 11.1661C9.60083 12.2253 8.79823 14.1701 8.85002 15.464H13.5154L13.5052 15.0522C13.5052 15.0522 13.1174 14.9487 13.1606 14.4009C13.1785 14.173 13.4288 13.4516 13.7564 12.4789C13.9539 12.0501 14.2518 11.0327 14.2243 10.2043C14.1901 9.17017 13.5448 8.69024 12.6143 8.35464C15.5147 7.67058 16.2396 3.60127 16.2399 3.60127L16.2403 3.60095ZM17.2708 4.22907H21.4129L19.707 10.8295C19.707 10.8295 19.2816 12.3015 20.6506 12.4149C21.7322 12.505 22.537 11.2069 22.8007 10.3277C23.1472 9.17307 24.4935 4.22875 24.4935 4.22875H28.761L25.5138 15.4636H21.7878L22.2455 13.8586C22.2455 13.8586 20.3447 16.1898 17.5204 15.9101C15.01 15.6623 14.7936 13.831 15.2286 11.5464C15.4421 10.4248 17.2708 4.22907 17.2708 4.22907ZM38.5446 5.61069C37.9536 7.26876 36.3251 7.07332 36.3251 7.07332L34.1017 7.07396L34.9794 3.78868C34.9794 3.78868 36.3868 3.79607 37.3163 3.79607C38.4542 3.79607 38.8671 4.70515 38.5446 5.61037V5.61069ZM43.2141 4.07542C43.5753 1.20032 41.3964 0 38.6763 0H31.5296L27.3111 15.4636H31.8524L33.1294 10.6961L36.7476 10.7183C36.7476 10.7183 42.3508 10.9568 43.2145 4.07542H43.2141ZM47.0322 13.1749C46.3226 13.3559 45.4621 13.4542 45.2914 12.8058C44.8229 11.0292 48.9589 10.509 48.9589 10.509C48.987 12.1279 47.5765 13.0354 47.0318 13.1749H47.0322ZM53.289 9.92302C53.8346 8.05408 54.5244 6.28446 53.9692 5.3037C53.1189 3.8025 51.5822 3.67071 49.3338 3.67071C46.85 3.67071 43.7834 4.14517 42.7839 7.4671H46.919C46.919 7.4671 47.2959 6.21599 48.848 6.29475C50.2218 6.36451 50.1467 7.31505 49.6404 7.84063C48.7524 8.7616 46.3002 8.25081 43.5843 9.19846C41.2113 10.0265 40.3809 13.1646 40.8965 14.417C41.3961 15.6314 42.3265 15.7861 43.5817 15.9101C45.5977 16.1094 47.1434 14.9789 47.8629 14.3154C47.8629 15.0522 47.8821 15.4636 47.8821 15.4636H52.2336L52.223 15.0519C52.223 15.0519 51.8353 14.9483 51.8785 14.4006C51.9098 13.9994 52.6616 12.0694 53.2887 9.92302H53.289Z" fill="black"/>
</svg>
